<mxfile host="app.diagrams.net" agent="Mozilla/5.0 (Windows NT 10.0; Win64; x64) AppleWebKit/537.36 (KHTML, like Gecko) Chrome/136.0.0.0 Safari/537.36" version="27.0.5">
  <diagram name="第 1 页" id="yGKkY3IXAtz0xJvJZ0hB">
    <mxGraphModel dx="2239" dy="763" grid="1" gridSize="10" guides="1" tooltips="1" connect="1" arrows="1" fold="1" page="1" pageScale="1" pageWidth="827" pageHeight="1169" math="0" shadow="0">
      <root>
        <mxCell id="0" />
        <mxCell id="1" parent="0" />
        <mxCell id="R5hmWRW45EeVHVbpmFVQ-31" value="" style="rounded=1;whiteSpace=wrap;html=1;verticalAlign=top;fontSize=20;fillColor=#dae8fc;strokeColor=#8FBCFF;dashed=1;" parent="1" vertex="1">
          <mxGeometry x="120" y="150" width="560" height="100" as="geometry" />
        </mxCell>
        <mxCell id="R5hmWRW45EeVHVbpmFVQ-2" value="MD编辑器" style="rounded=1;whiteSpace=wrap;html=1;fillColor=#dae8fc;gradientColor=#7ea6e0;strokeColor=#7EA6E0;" parent="1" vertex="1">
          <mxGeometry x="150" y="180" width="120" height="45" as="geometry" />
        </mxCell>
        <mxCell id="R5hmWRW45EeVHVbpmFVQ-3" value="XML编辑器" style="rounded=1;whiteSpace=wrap;html=1;fillColor=#dae8fc;gradientColor=#7ea6e0;strokeColor=#7EA6E0;" parent="1" vertex="1">
          <mxGeometry x="340" y="180" width="120" height="45" as="geometry" />
        </mxCell>
        <mxCell id="R5hmWRW45EeVHVbpmFVQ-4" value="MD转换引擎" style="rounded=1;whiteSpace=wrap;html=1;verticalAlign=top;fontSize=20;fillColor=#dae8fc;strokeColor=#7EA6E0;" parent="1" vertex="1">
          <mxGeometry x="420" y="280" width="260" height="110" as="geometry" />
        </mxCell>
        <mxCell id="R5hmWRW45EeVHVbpmFVQ-5" value="PDF ---&amp;gt; MD" style="rounded=1;whiteSpace=wrap;html=1;fillColor=#dae8fc;strokeColor=#7EA6E0;gradientColor=#7ea6e0;dashed=1;" parent="1" vertex="1">
          <mxGeometry x="440" y="325" width="90" height="45" as="geometry" />
        </mxCell>
        <mxCell id="R5hmWRW45EeVHVbpmFVQ-6" value="WORD ---&amp;gt; MD" style="rounded=1;whiteSpace=wrap;html=1;fillColor=#dae8fc;gradientColor=#7ea6e0;strokeColor=#7EA6E0;dashed=1;" parent="1" vertex="1">
          <mxGeometry x="560" y="325" width="100" height="45" as="geometry" />
        </mxCell>
        <mxCell id="R5hmWRW45EeVHVbpmFVQ-8" value="文档管理" style="rounded=1;whiteSpace=wrap;html=1;fillColor=#dae8fc;gradientColor=#7ea6e0;strokeColor=#7EA6E0;" parent="1" vertex="1">
          <mxGeometry x="530" y="180" width="120" height="45" as="geometry" />
        </mxCell>
        <mxCell id="R5hmWRW45EeVHVbpmFVQ-9" value="XML转换引擎" style="rounded=1;whiteSpace=wrap;html=1;verticalAlign=top;fontSize=20;fillColor=#dae8fc;strokeColor=#8FBCFF;" parent="1" vertex="1">
          <mxGeometry x="120" y="280" width="280" height="110" as="geometry" />
        </mxCell>
        <mxCell id="R5hmWRW45EeVHVbpmFVQ-10" value="前置页" style="rounded=1;whiteSpace=wrap;html=1;fillColor=#dae8fc;strokeColor=#7EA6E0;gradientColor=#7ea6e0;dashed=1;" parent="1" vertex="1">
          <mxGeometry x="140" y="325" width="60" height="45" as="geometry" />
        </mxCell>
        <mxCell id="R5hmWRW45EeVHVbpmFVQ-11" value="正文" style="rounded=1;whiteSpace=wrap;html=1;fillColor=#dae8fc;strokeColor=#7EA6E0;gradientColor=#7ea6e0;dashed=1;" parent="1" vertex="1">
          <mxGeometry x="220" y="325" width="60" height="45" as="geometry" />
        </mxCell>
        <mxCell id="R5hmWRW45EeVHVbpmFVQ-12" value="后置页" style="rounded=1;whiteSpace=wrap;html=1;fillColor=#dae8fc;strokeColor=#7EA6E0;gradientColor=#7ea6e0;dashed=1;" parent="1" vertex="1">
          <mxGeometry x="300" y="325" width="70" height="45" as="geometry" />
        </mxCell>
        <mxCell id="R5hmWRW45EeVHVbpmFVQ-16" value="" style="edgeStyle=orthogonalEdgeStyle;rounded=0;orthogonalLoop=1;jettySize=auto;html=1;" parent="1" source="R5hmWRW45EeVHVbpmFVQ-14" target="R5hmWRW45EeVHVbpmFVQ-15" edge="1">
          <mxGeometry relative="1" as="geometry" />
        </mxCell>
        <mxCell id="R5hmWRW45EeVHVbpmFVQ-14" value="文档上传" style="rounded=1;whiteSpace=wrap;html=1;fillColor=#dae8fc;gradientColor=#7ea6e0;strokeColor=#7EA6E0;" parent="1" vertex="1">
          <mxGeometry x="-10" y="860" width="120" height="60" as="geometry" />
        </mxCell>
        <mxCell id="R5hmWRW45EeVHVbpmFVQ-21" value="" style="edgeStyle=orthogonalEdgeStyle;rounded=0;orthogonalLoop=1;jettySize=auto;html=1;" parent="1" source="R5hmWRW45EeVHVbpmFVQ-15" target="R5hmWRW45EeVHVbpmFVQ-20" edge="1">
          <mxGeometry relative="1" as="geometry" />
        </mxCell>
        <mxCell id="R5hmWRW45EeVHVbpmFVQ-15" value="生成MD" style="rounded=1;whiteSpace=wrap;html=1;fillColor=#dae8fc;gradientColor=#7ea6e0;strokeColor=#7EA6E0;" parent="1" vertex="1">
          <mxGeometry x="170" y="860" width="120" height="60" as="geometry" />
        </mxCell>
        <mxCell id="R5hmWRW45EeVHVbpmFVQ-23" value="" style="edgeStyle=orthogonalEdgeStyle;rounded=0;orthogonalLoop=1;jettySize=auto;html=1;" parent="1" source="R5hmWRW45EeVHVbpmFVQ-20" target="R5hmWRW45EeVHVbpmFVQ-22" edge="1">
          <mxGeometry relative="1" as="geometry" />
        </mxCell>
        <mxCell id="R5hmWRW45EeVHVbpmFVQ-24" value="否" style="edgeLabel;html=1;align=center;verticalAlign=middle;resizable=0;points=[];" parent="R5hmWRW45EeVHVbpmFVQ-23" vertex="1" connectable="0">
          <mxGeometry x="-0.3111" y="-4" relative="1" as="geometry">
            <mxPoint x="4" as="offset" />
          </mxGeometry>
        </mxCell>
        <mxCell id="R5hmWRW45EeVHVbpmFVQ-26" value="" style="edgeStyle=orthogonalEdgeStyle;rounded=0;orthogonalLoop=1;jettySize=auto;html=1;" parent="1" source="R5hmWRW45EeVHVbpmFVQ-20" target="R5hmWRW45EeVHVbpmFVQ-25" edge="1">
          <mxGeometry relative="1" as="geometry" />
        </mxCell>
        <mxCell id="R5hmWRW45EeVHVbpmFVQ-30" value="是" style="edgeLabel;html=1;align=center;verticalAlign=middle;resizable=0;points=[];" parent="R5hmWRW45EeVHVbpmFVQ-26" vertex="1" connectable="0">
          <mxGeometry x="-0.2" y="1" relative="1" as="geometry">
            <mxPoint as="offset" />
          </mxGeometry>
        </mxCell>
        <mxCell id="R5hmWRW45EeVHVbpmFVQ-20" value="&lt;font style=&quot;font-size: 14px;&quot;&gt;是否需&lt;/font&gt;&lt;div&gt;&lt;font style=&quot;font-size: 14px;&quot;&gt;要调整&lt;/font&gt;&lt;/div&gt;" style="rhombus;whiteSpace=wrap;html=1;fillColor=#dae8fc;strokeColor=#7EA6E0;rounded=1;gradientColor=#7ea6e0;" parent="1" vertex="1">
          <mxGeometry x="340" y="850" width="80" height="80" as="geometry" />
        </mxCell>
        <mxCell id="R5hmWRW45EeVHVbpmFVQ-29" value="" style="edgeStyle=orthogonalEdgeStyle;rounded=0;orthogonalLoop=1;jettySize=auto;html=1;" parent="1" source="R5hmWRW45EeVHVbpmFVQ-22" target="R5hmWRW45EeVHVbpmFVQ-28" edge="1">
          <mxGeometry relative="1" as="geometry" />
        </mxCell>
        <mxCell id="R5hmWRW45EeVHVbpmFVQ-22" value="生成XML" style="whiteSpace=wrap;html=1;fillColor=#dae8fc;strokeColor=#7EA6E0;rounded=1;gradientColor=#7ea6e0;" parent="1" vertex="1">
          <mxGeometry x="320" y="970" width="120" height="60" as="geometry" />
        </mxCell>
        <mxCell id="R5hmWRW45EeVHVbpmFVQ-27" style="edgeStyle=orthogonalEdgeStyle;rounded=0;orthogonalLoop=1;jettySize=auto;html=1;entryX=1;entryY=0.5;entryDx=0;entryDy=0;" parent="1" source="R5hmWRW45EeVHVbpmFVQ-25" target="R5hmWRW45EeVHVbpmFVQ-22" edge="1">
          <mxGeometry relative="1" as="geometry">
            <Array as="points">
              <mxPoint x="520" y="1000" />
            </Array>
          </mxGeometry>
        </mxCell>
        <mxCell id="R5hmWRW45EeVHVbpmFVQ-25" value="在线编辑MD" style="whiteSpace=wrap;html=1;fillColor=#dae8fc;strokeColor=#7EA6E0;rounded=1;gradientColor=#7ea6e0;" parent="1" vertex="1">
          <mxGeometry x="490" y="860" width="120" height="60" as="geometry" />
        </mxCell>
        <mxCell id="R5hmWRW45EeVHVbpmFVQ-28" value="在线编辑XML" style="whiteSpace=wrap;html=1;fillColor=#dae8fc;strokeColor=#7EA6E0;rounded=1;gradientColor=#7ea6e0;" parent="1" vertex="1">
          <mxGeometry x="320" y="1070" width="120" height="60" as="geometry" />
        </mxCell>
        <mxCell id="WJREl7AgF6O7S-IlNiL0-2" value="数据服务" style="rounded=1;whiteSpace=wrap;html=1;verticalAlign=top;fontSize=20;fillColor=#dae8fc;strokeColor=#8FBCFF;" vertex="1" parent="1">
          <mxGeometry x="120" y="420" width="560" height="110" as="geometry" />
        </mxCell>
        <mxCell id="WJREl7AgF6O7S-IlNiL0-3" value="文档库" style="rounded=1;whiteSpace=wrap;html=1;fillColor=#dae8fc;gradientColor=#7ea6e0;strokeColor=#7EA6E0;" vertex="1" parent="1">
          <mxGeometry x="150" y="452.5" width="120" height="45" as="geometry" />
        </mxCell>
        <mxCell id="WJREl7AgF6O7S-IlNiL0-4" value="数字标准库" style="rounded=1;whiteSpace=wrap;html=1;fillColor=#dae8fc;gradientColor=#7ea6e0;strokeColor=#7EA6E0;" vertex="1" parent="1">
          <mxGeometry x="320" y="452.5" width="120" height="45" as="geometry" />
        </mxCell>
        <mxCell id="WJREl7AgF6O7S-IlNiL0-5" value="关系图谱" style="rounded=1;whiteSpace=wrap;html=1;fillColor=#dae8fc;gradientColor=#7ea6e0;strokeColor=#7EA6E0;" vertex="1" parent="1">
          <mxGeometry x="490" y="452.5" width="120" height="45" as="geometry" />
        </mxCell>
      </root>
    </mxGraphModel>
  </diagram>
</mxfile>
